<?xml version="1.0" encoding="UTF-8" standalone="no"?>
<svg
   version="1.1"
   id="Layer_1"
   x="0px"
   y="0px"
   width="174.21985"
   viewBox="0 0 174.21985 174.21985"
   enable-background="new 0 0 200 200"
   xml:space="preserve"
   sodipodi:docname="file.svg"
   inkscape:version="1.2.2 (b0a84865, 2022-12-01)"
   height="174.21985"
   xmlns:inkscape="http://www.inkscape.org/namespaces/inkscape"
   xmlns:sodipodi="http://sodipodi.sourceforge.net/DTD/sodipodi-0.dtd"
   xmlns="http://www.w3.org/2000/svg"
   xmlns:svg="http://www.w3.org/2000/svg"><defs
   id="defs145" /><sodipodi:namedview
   id="namedview143"
   pagecolor="#ffffff"
   bordercolor="#000000"
   borderopacity="0.25"
   inkscape:showpageshadow="2"
   inkscape:pageopacity="0.0"
   inkscape:pagecheckerboard="0"
   inkscape:deskcolor="#d1d1d1"
   showgrid="false"
   inkscape:zoom="3.6103807"
   inkscape:cx="-18.5576"
   inkscape:cy="75.892273"
   inkscape:window-width="2560"
   inkscape:window-height="1382"
   inkscape:window-x="0"
   inkscape:window-y="30"
   inkscape:window-maximized="1"
   inkscape:current-layer="Layer_1" />

<rect
   style="fill:#2b4a68;fill-opacity:1;stroke:none;stroke-width:5.97392"
   id="rect1406"
   width="174.21985"
   height="174.21985"
   x="0"
   y="0" />

<g
   id="g1759"
   transform="matrix(1.0863558,0,0,1.0863558,-22.532623,-22.624976)"><path
     fill="#2E4C6A"
     opacity="1"
     stroke="none"
     d="m 76.455933,167.60172 c -4.6e-5,-43.2734 -1.68e-4,-86.093 -2.83e-4,-128.912603 -2.3e-5,-9.987621 8e-6,-9.987621 10.575081,-11.201559 0,22.646429 0,45.252966 0,68.115378 9.305084,0 18.240969,0 27.749819,0 0,-22.616799 0,-45.334435 0,-67.859657 0.71554,-0.234919 0.86918,-0.341628 1.00396,-0.321579 9.79213,1.456556 9.79201,1.457368 9.79201,11.243305 0,41.486698 0,82.973395 0,124.460085 0,9.89069 0,9.89069 -10.45398,11.47946 0,-22.64412 0,-45.23584 0,-68.146 -9.43302,0 -18.493962,0 -27.974347,0 0,22.63862 0,45.22663 0,67.82857 -8.938995,-0.36157 -10.391815,-1.24018 -10.69226,-6.6854 z"
     id="path134"
     style="fill:#ffffff;fill-opacity:1" /><path
     fill="#2B4A68"
     opacity="1"
     stroke="none"
     d="m 72.406021,79.000137 c 1.07e-4,30.579313 1.07e-4,60.658633 1.07e-4,90.865313 C 50.50563,164.31663 29.599485,136.9239 26.214064,109.88481 22.698784,81.808525 37.269558,51.077351 60.743042,37.873573 c 3.329735,3.457981 6.9245,6.909558 10.134659,10.687897 1.031204,1.213718 1.433517,3.283089 1.462707,4.972424 0.143769,8.319973 0.06544,16.643787 0.06561,25.466243 M 53.97892,145.52179 c 2.434044,2.22325 4.868092,4.4465 8.039104,7.34291 0,-32.9006 0.03365,-64.383423 -0.08867,-95.865631 -0.0069,-1.774776 -1.296284,-3.544575 -2.087525,-5.569435 C 31.036396,73.503769 28.451984,116.94961 53.97892,145.52179 Z"
     id="path136"
     style="fill:#ffffff;fill-opacity:1" /><path
     fill="#2B4A68"
     opacity="1"
     stroke="none"
     d="m 151.56155,60.469055 c -3.58212,-3.843128 -6.93309,-7.414898 -10.28407,-10.986667 -0.34608,0.265575 -0.69218,0.531147 -1.03827,0.796718 0,33.800202 0,67.600404 0,102.291894 15.08981,-12.20636 23.41443,-27.10982 25.23688,-46.19139 -3.1366,-0.15446 -5.89459,-0.29027 -8.96794,-0.44161 0,-3.18988 0,-6.266972 0,-9.736141 6.33124,0 12.69323,0 19.05078,0 4.62006,28.308321 -17.99945,65.097121 -45.58434,73.714141 0,-45.94137 0,-91.765739 0,-137.596111 13.04148,2.327068 32.42754,20.719685 39.00867,37.248409 -2.78148,1.279969 -5.59038,2.572548 -8.63548,3.973816 -2.90521,-4.347343 -5.73014,-8.574524 -8.78623,-13.073059 z"
     id="path138"
     style="fill:#ffffff;fill-opacity:1" /></g>

</svg>
